# xmcd
#
# Track frame offsets:
#	150
#	25888
#	54297
#	91614
#	128446
#	155737
#	183240
#	221083
#	240247
#	258938
#	281194
#	294238
#	312330
#	319599
#	340834
#
# Disc length: 4778 seconds
#
# Revision: 0
# Processed by: cddbd v1.5.2PL0 Copyright (c) Steve Scherf et al.
# Submitted via: EasyCDDAExtractor 2010.6.0.0
#
DISCID=c812a80f
DTITLE=Bronski Beat - Hundreds And Thousends (Deluxe Ediition)
DYEAR=2012
DGENRE=Pop
TTITLE0=Heatwave (Goldberg Remix)
TTITLE1=Why ?  (Goldberg Remix)
TTITLE2=Run From Love (Maita Remix)
TTITLE3=Hard Rain (Goldberg Remix)
TTITLE4=Smalltown Boy (Goldberg Remix)
TTITLE5=Junk (Goldberg Remix)
TTITLE6=I Feel Love (Fruit Mix)
TTITLE7=Hard Rain (Demo)
TTITLE8=Screaming (Demo)
TTITLE9=Signs (And Wonders)
TTITLE10=The Potato Fields
TTITLE11=Run From Love (Radio Version)
TTITLE12=Puit D´Amour 
TTITLE13=Close To The Edge
TTITLE14=Cadillac Car
EXTD=
EXTT0=
EXTT1=
EXTT2=
EXTT3=
EXTT4=
EXTT5=
EXTT6=
EXTT7=
EXTT8=
EXTT9=
EXTT10=
EXTT11=
EXTT12=
EXTT13=
EXTT14=
PLAYORDER=
